<svg xmlns="http://www.w3.org/2000/svg" xmlns:xlink="http://www.w3.org/1999/xlink" width="41" height="24" viewBox="0 0 41 24">
  <defs>
    <style>
      .cls-1 {
        fill-rule: evenodd;
        fill: url(#linear-gradient);
      }
    </style>
    <linearGradient id="linear-gradient" x1="20.516" y1="23.719" x2="20.516" y2="-0.031" gradientUnits="userSpaceOnUse">
      <stop offset="0" stop-color="#008cff"/>
      <stop offset="1" stop-color="#00b1ff"/>
    </linearGradient>
  </defs>
  <path id="形状_5_拷贝_3" data-name="形状 5 拷贝 3" class="cls-1" d="M28.489,9.531l-4.136,3.714-7.37.06L12.148,9.663,7.328,8.046,6.969,3.264l5.1-2.986,8.34,1.037L27.45-.031l5.791,2.9,0.037,4.6Zm10.963,8.377,1.574-3.51-4.2-4.383-4.793,1.7,1,4.409,3.541,2Zm-10.21,5.42,3.5-3.525-2.926-5.13-6.72,1.159L21.522,19.71,25.4,23.728Zm-12.818-.08,2.855-3.52-0.665-2.94L14.753,14.8,9,17.235,9.686,22.2ZM5.158,17.082L1.31,16.745l-1.3-2.75,2.857-3.336L7.35,10.806,9.3,14.472Z"/>
</svg>
